<svg width="40" height="40" viewBox="0 0 40 40" fill="none" xmlns="http://www.w3.org/2000/svg">
  <!-- Reformer Machine Base -->
  <rect x="2" y="30" width="36" height="3" rx="1.5" fill="url(#gradient1)" opacity="0.8"/>
  
  <!-- Reformer Rails -->
  <rect x="4" y="28" width="32" height="1" rx="0.5" fill="#6B7280" opacity="0.6"/>
  <rect x="4" y="34" width="32" height="1" rx="0.5" fill="#6B7280" opacity="0.6"/>
  
  <!-- Moving Carriage -->
  <rect x="12" y="26" width="16" height="7" rx="2" fill="url(#gradient2)" opacity="0.9"/>
  
  <!-- Springs -->
  <path d="M5 31.5 Q8 29 11 31.5" stroke="url(#gradient1)" stroke-width="1.5" fill="none" stroke-linecap="round"/>
  <path d="M5 31.5 Q8 34 11 31.5" stroke="url(#gradient1)" stroke-width="1.5" fill="none" stroke-linecap="round"/>
  
  <!-- Figure doing Pilates -->
  <!-- Head -->
  <circle cx="20" cy="18" r="3" fill="url(#gradient2)"/>
  
  <!-- Body/Torso -->
  <ellipse cx="20" cy="24" rx="2.5" ry="4" fill="url(#gradient2)" opacity="0.8"/>
  
  <!-- Arms in Pilates position -->
  <path d="M17.5 22 Q15 20 13 23" stroke="url(#gradient1)" stroke-width="2" fill="none" stroke-linecap="round"/>
  <path d="M22.5 22 Q25 20 27 23" stroke="url(#gradient1)" stroke-width="2" fill="none" stroke-linecap="round"/>
  
  <!-- Resistance straps/cables -->
  <path d="M13 23 Q20 18 27 23" stroke="#8B5CF6" stroke-width="1" fill="none" stroke-linecap="round" opacity="0.7" stroke-dasharray="2,2"/>
  
  <!-- Gradients -->
  <defs>
    <linearGradient id="gradient1" x1="0%" y1="0%" x2="100%" y2="100%">
      <stop offset="0%" style="stop-color:#8B5CF6;stop-opacity:1" />
      <stop offset="100%" style="stop-color:#3B82F6;stop-opacity:1" />
    </linearGradient>
    
    <linearGradient id="gradient2" x1="0%" y1="0%" x2="100%" y2="100%">
      <stop offset="0%" style="stop-color:#3B82F6;stop-opacity:1" />
      <stop offset="100%" style="stop-color:#8B5CF6;stop-opacity:1" />
    </linearGradient>
  </defs>
</svg>
