<svg version="1.0" xmlns="http://www.w3.org/2000/svg"
 width="3492.000000pt" height="903.000000pt" viewBox="0 0 3492.000000 903.000000"
 preserveAspectRatio="xMidYMid meet">

<g transform="translate(0.000000,903.000000) scale(0.100000,-0.100000)"
fill="#000" stroke="none">
<path d="M28420 6686 c0 -4 108 -97 184 -159 22 -18 65 -54 96 -82 114 -101
310 -265 315 -265 3 0 16 -10 28 -23 12 -13 119 -103 237 -201 118 -98 234
-194 257 -213 23 -19 54 -43 70 -53 15 -9 37 -27 47 -39 11 -11 25 -21 31 -21
7 0 16 -7 19 -16 4 -9 13 -14 21 -10 8 3 14 0 12 -6 -2 -12 143 -126 353 -275
220 -157 230 -164 242 -157 6 4 8 3 4 -4 -8 -14 139 -106 155 -96 8 4 9 3 5
-4 -8 -13 39 -45 252 -169 251 -146 728 -373 752 -358 4 3 10 1 12 -4 1 -5 67
-31 145 -58 101 -34 140 -52 135 -60 -5 -9 -89 -17 -262 -28 -576 -35 -901
-79 -1305 -175 -203 -48 -505 -140 -532 -162 -7 -6 -13 -8 -13 -5 0 4 -30 -5
-67 -19 -257 -96 -629 -284 -807 -408 -33 -23 -84 -58 -115 -79 -81 -56 -287
-225 -316 -258 -13 -16 -26 -29 -30 -29 -16 0 -171 -170 -167 -183 1 -5 -2 -6
-7 -3 -18 11 -202 -221 -325 -407 -67 -103 -176 -289 -176 -302 0 -3 177 -5
394 -5 l394 1 13 32 c7 17 45 83 83 147 38 63 69 121 69 128 0 6 2 10 5 7 2
-2 39 44 81 104 42 59 94 130 116 156 53 65 208 236 228 254 9 7 14 17 11 22
-3 5 0 8 8 7 7 -2 12 3 10 10 -1 8 1 11 6 9 4 -3 42 27 85 67 42 40 77 71 77
69 0 -2 31 23 69 54 124 105 319 237 511 348 36 20 68 42 72 49 4 6 8 8 8 3 0
-4 46 16 103 44 56 29 153 73 215 99 62 25 109 50 105 55 -5 4 -3 5 3 2 7 -4
42 5 80 19 533 200 1115 312 1849 354 246 14 318 21 308 30 -4 4 -39 17 -78
30 -104 33 -248 86 -353 131 -50 22 -97 37 -104 33 -6 -4 -8 -3 -5 3 8 12 -61
46 -75 37 -7 -4 -8 -2 -4 4 10 16 -7 15 -23 0 -10 -11 -11 -10 -7 2 4 11 -27
32 -118 79 -68 36 -127 63 -131 62 -4 -2 -11 2 -14 8 -4 6 -25 21 -48 33 -60
34 -219 129 -285 172 -32 20 -58 33 -58 29 0 -4 -4 -3 -8 3 -11 16 -105 77
-119 77 -7 0 -10 4 -7 9 3 4 1 8 -5 8 -5 0 -16 6 -23 13 -27 27 -76 56 -82 50
-3 -3 -6 -1 -6 5 0 6 -20 23 -44 37 -24 14 -50 32 -56 40 -7 8 -16 12 -21 9
-5 -3 -9 -1 -9 3 0 9 -15 21 -180 142 -41 31 -96 73 -122 94 -27 21 -56 40
-65 42 -10 1 -17 8 -15 14 1 6 -9 17 -23 23 -14 6 -25 14 -25 18 0 12 -87 69
-95 62 -3 -4 -5 -2 -3 3 1 6 1 10 -2 11 -3 0 -21 15 -40 33 -19 18 -42 38 -50
45 -8 7 -109 91 -224 187 -115 96 -226 187 -245 204 -20 16 -68 58 -108 93
-44 39 -77 61 -84 56 -7 -4 -9 -3 -6 3 6 9 -77 86 -88 81 -2 -2 -11 7 -20 18
-8 12 -51 52 -95 89 -71 58 -83 65 -98 53 -15 -12 -16 -11 -2 5 12 17 12 20 0
27 -8 5 -35 27 -60 49 l-45 41 -387 0 c-214 0 -388 -2 -388 -4z m1020 -802 c0
-8 -19 -13 -24 -6 -3 5 1 9 9 9 8 0 15 -2 15 -3z m2385 -1433 c3 -5 2 -12 -3
-15 -5 -3 -9 1 -9 9 0 17 3 19 12 6z"/>
<path d="M23275 6233 c-670 -22 -1139 -134 -1663 -397 -288 -144 -457 -260
-769 -528 -94 -82 -173 -148 -176 -148 -2 0 -46 106 -97 235 l-94 235 -403 0
c-222 0 -403 -4 -403 -8 0 -4 90 -230 200 -502 110 -271 197 -497 193 -500
-477 -420 -1123 -992 -1123 -995 0 -3 179 -5 399 -5 l398 0 266 235 c146 129
270 235 275 235 5 0 52 -105 104 -232 l95 -233 406 -3 406 -2 -204 504 -203
504 276 249 c413 371 525 464 722 605 275 195 509 314 905 464 371 139 859
252 1175 271 209 13 727 -69 1220 -192 597 -148 895 -262 1620 -617 666 -327
932 -450 1150 -535 220 -85 532 -178 735 -217 220 -44 290 -48 778 -53 263 -3
477 -6 475 -8 -2 -2 -71 -11 -153 -20 -426 -46 -756 -117 -1073 -231 -149 -54
-408 -177 -542 -259 -308 -187 -578 -452 -764 -748 -63 -101 -143 -254 -136
-260 3 -2 111 2 240 9 129 7 247 13 262 13 25 1 33 11 74 92 110 220 237 394
423 579 473 470 1143 742 2063 835 86 9 172 20 190 26 18 5 46 10 63 11 16 0
-13 4 -65 8 -194 15 -613 188 -980 405 -273 162 -643 424 -1155 819 l-230 177
-80 -5 c-44 -3 -154 -9 -245 -12 -91 -4 -173 -10 -183 -13 -19 -7 0 -22 488
-391 694 -525 1128 -781 1602 -946 46 -16 83 -32 83 -35 0 -4 -34 -12 -74 -18
-64 -9 -92 -8 -193 10 -344 59 -731 186 -1167 384 -91 41 -385 182 -653 314
-499 244 -663 320 -883 409 -630 254 -1484 443 -2170 482 -152 8 -1178 11
-1405 3z"/>
<path d="M3175 5615 c-170 -37 -336 -137 -487 -291 -160 -163 -264 -346 -319
-564 -41 -157 -34 -372 17 -528 86 -266 332 -470 664 -553 168 -41 267 -51
568 -56 l292 -5 77 68 c42 38 109 106 147 152 79 93 216 273 216 285 0 4 -213
7 -472 8 -337 0 -482 4 -506 12 -55 21 -158 104 -208 169 -103 137 -134 256
-99 388 43 166 171 335 300 396 l50 24 513 0 513 0 106 103 c92 89 277 299
335 380 l19 27 -833 -1 c-650 -1 -846 -4 -893 -14z"/>
<path d="M5570 5615 c-78 -16 -194 -57 -271 -95 -246 -124 -499 -380 -628
-638 -82 -163 -128 -397 -117 -592 7 -128 25 -203 72 -296 90 -181 253 -288
524 -346 84 -18 142 -21 499 -25 436 -5 504 -1 646 44 453 143 822 547 915
1003 30 145 31 353 2 461 -59 220 -201 362 -442 438 -153 49 -199 53 -680 57
-356 2 -469 0 -520 -11z m782 -524 c54 -26 103 -77 126 -130 23 -54 29 -272 8
-342 -48 -164 -226 -346 -442 -450 l-83 -40 -213 3 c-239 3 -237 3 -326 83
-68 61 -130 182 -140 275 -10 89 2 150 50 250 34 71 56 100 137 180 99 98 175
150 265 182 45 16 81 18 311 15 250 -2 262 -3 307 -26z"/>
<path d="M7731 5518 c-23 -62 -187 -513 -365 -1003 l-324 -890 360 -3 c199 -1
363 0 365 2 2 2 58 154 125 337 78 216 128 342 143 358 l24 24 177 -164 c98
-90 274 -253 392 -361 l214 -198 406 0 407 0 -100 103 c-55 56 -184 188 -286
292 -384 393 -370 375 -287 375 65 0 331 49 413 76 210 70 376 197 442 341 49
106 62 221 43 388 -24 210 -94 331 -228 397 l-67 33 -906 3 -907 3 -41 -113z
m1409 -417 c26 -50 3 -179 -38 -212 -23 -18 -44 -19 -347 -19 l-322 0 -163
-170 c-89 -94 -164 -169 -166 -167 -2 1 45 134 103 295 l107 292 407 0 c393 0
409 -1 419 -19z"/>
<path d="M10069 4625 l-366 -1005 964 0 964 0 168 168 c132 131 179 185 219
252 l51 85 -729 3 -728 2 42 113 41 112 381 3 380 2 230 216 c126 119 247 233
269 255 l40 39 -439 0 -440 0 -155 -153 c-86 -84 -166 -161 -179 -172 -26 -21
-38 -60 121 378 l71 197 597 0 596 0 39 29 c96 71 320 340 383 459 l12 22
-1083 0 -1083 0 -366 -1005z"/>
<path d="M12452 4632 c-199 -548 -362 -1000 -362 -1004 0 -5 162 -8 359 -8
l359 0 41 113 c22 61 83 227 134 367 l93 255 381 3 380 2 214 201 c118 111
239 225 269 255 l55 54 -438 0 -437 0 -174 -170 c-96 -93 -177 -170 -180 -170
-3 0 5 28 17 63 13 34 62 167 108 294 l84 233 596 0 596 0 39 28 c86 62 327
349 378 450 l17 32 -1083 0 -1083 0 -363 -998z"/>
<path d="M15152 5548 c-17 -46 -179 -490 -361 -988 -181 -498 -333 -913 -336
-922 -7 -17 37 -18 833 -18 l839 0 109 113 c132 136 324 368 324 391 0 3 -270
6 -601 6 -568 0 -601 1 -594 18 4 9 85 231 180 492 95 261 214 587 264 724 50
136 91 252 91 257 0 5 -157 9 -359 9 l-358 0 -31 -82z"/>
<path d="M16949 4625 l-366 -1005 964 0 963 0 169 168 c130 129 179 186 219
252 l52 85 -729 3 -729 2 42 113 41 112 383 5 382 5 265 249 c146 137 265 250
265 252 0 2 -197 4 -437 4 l-437 0 -155 -153 c-86 -84 -166 -161 -179 -172
-26 -21 -38 -60 121 378 l71 197 597 0 596 0 39 29 c96 71 320 340 383 459
l12 22 -1083 0 -1083 0 -366 -1005z"/>
</g>
</svg>
